<?xml version="1.0" standalone="no"?>
<!DOCTYPE svg PUBLIC "-//W3C//DTD SVG 20010904//EN"
 "http://www.w3.org/TR/2001/REC-SVG-20010904/DTD/svg10.dtd">
<svg version="1.0" xmlns="http://www.w3.org/2000/svg"
 width="1024.000000pt" height="1024.000000pt" viewBox="0 0 1024.000000 1024.000000"
 preserveAspectRatio="xMidYMid meet">
<metadata>
Created by potrace 1.16, written by Peter Selinger 2001-2019
</metadata>
<g transform="translate(0.000000,1024.000000) scale(0.100000,-0.100000)"
fill="currentColor" stroke="none">
<path d="M5219 7811 l64 -6 75 -160 c41 -88 156 -335 257 -550 101 -214 203
-435 228 -490 25 -55 82 -176 127 -270 45 -93 124 -262 175 -375 51 -113 134
-290 185 -395 101 -210 98 -189 29 -237 l-24 -18 27 4 c66 10 85 46 54 104
-44 84 -78 158 -83 181 -2 14 -8 28 -13 31 -9 6 -102 199 -201 420 -39 85 -94
205 -123 265 -30 61 -61 128 -71 150 -9 22 -21 47 -26 55 -5 8 -14 26 -20 40
-6 14 -24 54 -41 90 -16 36 -38 83 -48 105 -10 22 -41 86 -69 142 -27 56 -64
136 -81 178 -16 43 -38 89 -48 104 -10 14 -34 62 -54 106 -73 161 -102 223
-164 352 -35 73 -64 136 -64 141 0 26 -39 42 -96 40 l-59 -1 64 -6z"/>
<path d="M3722 7098 c-17 -35 -46 -99 -65 -143 -19 -44 -64 -141 -100 -215
-94 -198 -142 -300 -162 -345 -10 -22 -42 -92 -72 -155 -30 -63 -73 -157 -95
-207 -23 -51 -45 -93 -49 -93 -5 0 -9 -7 -9 -16 0 -9 -6 -28 -14 -42 -8 -15
-53 -115 -102 -222 -48 -107 -118 -259 -156 -338 -37 -78 -68 -145 -68 -149 0
-3 -22 -52 -49 -107 -27 -56 -69 -146 -94 -201 -25 -55 -59 -129 -75 -165 -17
-36 -54 -117 -82 -180 -29 -63 -90 -191 -135 -285 -45 -93 -86 -181 -90 -195
-4 -14 -34 -78 -66 -144 -33 -65 -59 -122 -59 -126 0 -5 -27 -65 -60 -135 -33
-70 -60 -128 -60 -131 0 -2 -37 -82 -81 -176 -45 -95 -94 -201 -110 -234 -31
-66 -39 -99 -12 -50 8 16 103 219 210 450 107 232 291 628 408 881 117 253
392 847 610 1320 219 473 456 986 527 1140 137 294 150 325 143 325 -2 0 -17
-28 -33 -62z"/>
<path d="M4690 6629 c0 -15 83 -204 157 -359 111 -229 263 -552 263 -558 0 -4
27 -61 59 -127 33 -66 83 -169 111 -230 109 -234 201 -417 206 -412 3 3 -6 28
-20 55 -14 28 -190 401 -392 829 -363 772 -383 814 -384 802z"/>
<path d="M4680 4973 c-91 -53 -185 -107 -210 -121 -25 -14 -112 -64 -195 -112
-82 -48 -216 -124 -298 -169 -81 -46 -150 -88 -154 -94 -3 -5 -2 -8 3 -5 12 7
766 436 918 522 65 37 123 65 130 63 13 -5 276 -560 276 -582 0 -7 -37 -37
-82 -66 -132 -83 -609 -411 -605 -415 7 -7 63 26 87 51 13 14 31 25 41 25 9 0
19 7 23 15 3 8 12 15 19 15 8 0 22 9 32 20 10 11 27 20 37 20 10 0 21 7 25 15
7 20 87 75 107 75 9 0 16 4 16 9 0 10 72 59 140 96 19 10 39 24 43 32 4 7 21
13 37 13 18 0 29 5 28 12 -2 7 6 16 17 21 11 6 29 21 39 34 18 25 18 26 -21
107 -22 44 -50 110 -63 146 -12 36 -28 72 -35 80 -6 8 -22 39 -34 68 -12 30
-31 70 -43 90 -11 20 -31 57 -45 84 -18 35 -31 48 -47 47 -11 0 -95 -43 -186
-96z"/>
<path d="M6771 5042 c-107 -3 -117 -4 -158 -32 -23 -16 -91 -59 -150 -96 -60
-37 -151 -94 -204 -128 -53 -33 -134 -83 -178 -111 -94 -58 -158 -97 -292
-184 -53 -33 -101 -61 -107 -61 -6 0 -17 -6 -24 -13 -7 -7 -65 -47 -128 -88
-63 -42 -167 -110 -231 -151 -64 -42 -138 -88 -165 -103 -69 -37 -114 -65
-158 -100 -21 -16 -78 -55 -127 -85 -135 -84 -707 -469 -714 -481 -4 -5 107
66 247 158 435 289 703 463 1123 731 235 150 912 576 1116 703 l46 29 657 -2
658 -3 -79 -52 c-210 -138 -752 -487 -858 -553 -66 -41 -122 -75 -124 -77 -4
-2 136 -306 374 -808 78 -165 179 -380 225 -479 47 -98 86 -173 88 -167 2 7
-19 58 -48 114 -29 56 -74 152 -100 212 -51 118 -108 238 -230 485 -42 85 -83
171 -90 190 -7 19 -35 82 -63 140 -27 58 -57 123 -67 145 -42 93 -50 111 -62
126 -17 25 -4 45 49 70 26 13 53 29 58 35 14 16 120 84 131 84 5 1 25 14 44
30 19 17 42 30 51 30 10 0 19 4 21 8 4 10 94 72 105 72 4 0 20 10 35 23 14 13
44 32 65 43 21 10 43 24 48 30 6 7 26 19 46 28 20 10 46 26 57 36 12 11 26 20
33 20 6 0 23 13 37 28 35 37 104 83 172 115 63 29 99 62 84 77 -10 10 -947 19
-1213 12z"/>
<path d="M3523 3372 c-507 -339 -921 -618 -919 -619 6 -6 53 23 227 140 97 64
181 117 188 117 6 0 11 4 11 9 0 5 8 12 18 15 10 4 34 20 52 36 19 17 39 30
46 30 7 0 14 3 16 8 2 4 37 29 78 56 41 27 87 58 102 68 15 10 32 18 38 18 5
0 10 4 10 9 0 8 16 20 94 69 46 29 77 49 151 102 84 60 162 112 240 160 28 17
75 46 105 65 30 19 69 47 86 62 17 15 68 51 114 78 45 28 97 61 114 75 43 35
94 70 101 70 3 0 18 11 33 25 15 14 25 25 22 24 -3 0 -420 -278 -927 -617z"/>
<path d="M5924 3692 c-55 -37 -197 -130 -315 -207 l-214 -140 -175 -5 -175 -6
173 -2 174 -2 67 45 c37 25 75 45 84 45 10 0 20 7 23 15 3 8 14 17 24 20 10 3
30 17 46 31 16 13 40 27 54 30 14 4 30 11 35 18 23 25 95 76 108 76 8 0 22 12
32 26 10 15 22 23 31 20 8 -3 14 -1 14 4 0 6 6 10 13 10 7 0 22 8 33 18 25 21
61 42 73 42 9 0 56 -94 91 -181 10 -25 53 -117 95 -205 42 -87 87 -181 100
-209 83 -178 185 -385 190 -385 6 0 -31 80 -268 582 -111 235 -204 428 -207
427 -3 0 -50 -31 -106 -67z"/>
</g>
</svg>
